<mxfile host="Electron" modified="2024-03-04T02:30:13.011Z" agent="Mozilla/5.0 (Windows NT 10.0; Win64; x64) AppleWebKit/537.36 (KHTML, like Gecko) draw.io/22.1.21 Chrome/120.0.6099.109 Electron/28.1.0 Safari/537.36" etag="xuTio6ji0zAih6OW7n0l" version="22.1.21" type="device">
  <diagram id="J0Jw_gMJzLSo-h7KQk8o" name="Test Page">
    <mxGraphModel dx="1434" dy="836" grid="1" gridSize="10" guides="1" tooltips="1" connect="1" arrows="1" fold="1" page="1" pageScale="1" pageWidth="850" pageHeight="1100" math="0" shadow="0">
      <root>
        <mxCell id="0" />
        <mxCell id="1" parent="0" />
        <mxCell id="epX7T-zXdiikZqVbhkOo-1" value="Shop" style="html=1;whiteSpace=wrap;" parent="1" vertex="1">
          <mxGeometry x="315" y="290" width="110" height="50" as="geometry" />
        </mxCell>
        <mxCell id="epX7T-zXdiikZqVbhkOo-2" value="Shopper" style="html=1;whiteSpace=wrap;" parent="1" vertex="1">
          <mxGeometry x="500" y="290" width="110" height="50" as="geometry" />
        </mxCell>
        <mxCell id="epX7T-zXdiikZqVbhkOo-3" value="RowUI" style="html=1;whiteSpace=wrap;" parent="1" vertex="1">
          <mxGeometry x="315" y="400" width="110" height="50" as="geometry" />
        </mxCell>
        <mxCell id="epX7T-zXdiikZqVbhkOo-4" value="ShopUI" style="html=1;whiteSpace=wrap;" parent="1" vertex="1">
          <mxGeometry x="500" y="400" width="110" height="50" as="geometry" />
        </mxCell>
        <mxCell id="CzhTfXIW62o9XZvxb9Js-1" value="Attach to" style="html=1;verticalAlign=bottom;startArrow=oval;startFill=1;endArrow=block;startSize=8;curved=0;rounded=0;" parent="1" source="epX7T-zXdiikZqVbhkOo-2" target="CzhTfXIW62o9XZvxb9Js-2" edge="1">
          <mxGeometry x="-0.0103" width="60" relative="1" as="geometry">
            <mxPoint x="500" y="440" as="sourcePoint" />
            <mxPoint x="710" y="280" as="targetPoint" />
            <mxPoint as="offset" />
          </mxGeometry>
        </mxCell>
        <mxCell id="CzhTfXIW62o9XZvxb9Js-2" value="Player" style="ellipse;shape=umlEntity;whiteSpace=wrap;html=1;" parent="1" vertex="1">
          <mxGeometry x="710" y="275" width="80" height="80" as="geometry" />
        </mxCell>
        <mxCell id="CeNOZ7P4JtKM7td6Sw3N-2" value="Subscribe event" style="endArrow=open;endSize=12;dashed=1;html=1;rounded=0;" edge="1" parent="1" source="epX7T-zXdiikZqVbhkOo-4" target="epX7T-zXdiikZqVbhkOo-2">
          <mxGeometry width="160" relative="1" as="geometry">
            <mxPoint x="450" y="550" as="sourcePoint" />
            <mxPoint x="610" y="550" as="targetPoint" />
          </mxGeometry>
        </mxCell>
        <mxCell id="jjK10x3MlpFM84TFmCq0-1" value="Attach to" style="html=1;verticalAlign=bottom;startArrow=oval;startFill=1;endArrow=block;startSize=8;curved=0;rounded=0;" edge="1" parent="1" source="epX7T-zXdiikZqVbhkOo-4" target="jjK10x3MlpFM84TFmCq0-2">
          <mxGeometry x="-0.0103" width="60" relative="1" as="geometry">
            <mxPoint x="620" y="325" as="sourcePoint" />
            <mxPoint x="720" y="325" as="targetPoint" />
            <mxPoint as="offset" />
          </mxGeometry>
        </mxCell>
        <mxCell id="jjK10x3MlpFM84TFmCq0-2" value="Shop UI" style="ellipse;shape=umlEntity;whiteSpace=wrap;html=1;" vertex="1" parent="1">
          <mxGeometry x="710" y="385" width="80" height="80" as="geometry" />
        </mxCell>
        <mxCell id="jjK10x3MlpFM84TFmCq0-3" value="Shop Keeper" style="ellipse;shape=umlEntity;whiteSpace=wrap;html=1;" vertex="1" parent="1">
          <mxGeometry x="330" y="150" width="80" height="80" as="geometry" />
        </mxCell>
        <mxCell id="jjK10x3MlpFM84TFmCq0-4" value="Attach to" style="html=1;verticalAlign=bottom;startArrow=oval;startFill=1;endArrow=block;startSize=8;curved=0;rounded=0;" edge="1" parent="1" source="epX7T-zXdiikZqVbhkOo-1" target="jjK10x3MlpFM84TFmCq0-3">
          <mxGeometry x="-0.0103" width="60" relative="1" as="geometry">
            <mxPoint x="715" y="325" as="sourcePoint" />
            <mxPoint x="815" y="325" as="targetPoint" />
            <mxPoint as="offset" />
          </mxGeometry>
        </mxCell>
        <mxCell id="jjK10x3MlpFM84TFmCq0-5" value="«interface»&lt;br&gt;&lt;b&gt;IRaycastable&lt;/b&gt;" style="html=1;whiteSpace=wrap;" vertex="1" parent="1">
          <mxGeometry x="145" y="290" width="110" height="50" as="geometry" />
        </mxCell>
        <mxCell id="jjK10x3MlpFM84TFmCq0-6" value="" style="endArrow=block;dashed=1;endFill=0;endSize=12;html=1;rounded=0;" edge="1" parent="1" source="epX7T-zXdiikZqVbhkOo-1" target="jjK10x3MlpFM84TFmCq0-5">
          <mxGeometry width="160" relative="1" as="geometry">
            <mxPoint x="535" y="460" as="sourcePoint" />
            <mxPoint x="695" y="460" as="targetPoint" />
          </mxGeometry>
        </mxCell>
        <mxCell id="jjK10x3MlpFM84TFmCq0-7" value="" style="endArrow=open;endFill=1;endSize=12;html=1;rounded=0;" edge="1" parent="1" source="epX7T-zXdiikZqVbhkOo-1" target="epX7T-zXdiikZqVbhkOo-2">
          <mxGeometry width="160" relative="1" as="geometry">
            <mxPoint x="330" y="450" as="sourcePoint" />
            <mxPoint x="490" y="450" as="targetPoint" />
          </mxGeometry>
        </mxCell>
      </root>
    </mxGraphModel>
  </diagram>
</mxfile>
